<?xml version="1.0" encoding="UTF-8"?><svg id="Layer_1" xmlns="http://www.w3.org/2000/svg" width="321.676" height="223.774" viewBox="0 0 321.676 223.774"><defs><style>.cls-1{fill:#5e7258;}.cls-2{fill:#839b7e;}.cls-3{fill:#4d604b;}</style></defs><g><path class="cls-2" d="M154.298,29.262c-3.983,13.211-9.18,27.103-14.655,39.74,8.344-3.68,14.871-3.89,28.538-3.89-1.917-6.551-3.304-11.807-5.055-18.581-.539-2.085-5.111-13.259-8.828-17.268Z"/><path class="cls-2" d="M132.116,81.044c2.221-7.999,8.709-10.465,19.931-12.043,11.258-1.582,16.301,.435,23.491-3.411,9.635-5.154,14.819-16.04,19.909-25.888-.043,12.868-.246,25.956-4.016,38.23-3.77,12.274-11.663,23.826-23.214,28.849-11.551,5.023-26.821,1.764-33.317-9.246-2.134-3.617-3.813-12.788-2.785-16.491Z"/><path class="cls-1" d="M147.907,85.963c-2.244,3.133-1.935,7.98,.987,10.456s7.776,2.005,10.192-.99c.933-1.156,1.95-2.524,1.896-4.023-.371-10.368-9.47-10.478-13.076-5.443Z"/><path class="cls-2" d="M114.284,99.289c-1.959-5.051,1.786-11.494,7.049-12.129,.753-.091,2.48-.526,3.092-.066,.571,.428,.96,1.112,1.101,1.823,1.623,8.143,3.884,11.992,7.948,18.709,.733,1.212,.997,2.721,.888,4.143-.185,2.426-4.516,3.98-6.846,4.439-2.329,.459-4.783-.457-6.587-2.036-.592-.518-1.228-1.145-2.004-1.093-.372,.025-.713,.208-1.041,.389-14.831,8.202-27.519,20.437-36.414,35.116-.633,1.044-1.263,2.121-2.18,2.913-2.889,2.495-7.686,1.053-9.858-2.116-2.172-3.169-2.271-7.375-1.663-11.198,1.714-10.787,8.403-20.322,16.958-26.838,8.555-6.516,18.859-10.25,29.556-12.056Z"/><path class="cls-2" d="M149.64,114.641c-2.189,2.02-3.117,5.366-2.29,8.266,.827,2.899,3.366,5.206,6.271,5.697,2.444,15.514-1.154,31.942-9.831,44.893-1.053,1.572-2.2,3.141-2.682,4.983-1.179,4.508,1.909,8.974,5.169,12.229,1.551,1.549,3.274,3.058,5.375,3.591,3.019,.766,6.176-.651,8.68-2.543,7.387-5.58,10.991-14.952,13.418-24.027,3.72-13.91,5.212-29.904-2.769-41.781,2.933-2.937,5.042-6.729,4.425-10.885-.753-5.068-7.352-3.073-11.707-2.281,0,0-11.692,1.724-14.058,1.857Z"/></g><path class="cls-1" d="M157.93,55.785c.166,1.523,.323,3.095,1.055,4.441s2.208,2.416,3.72,2.174c.448-.072,.9-.273,1.151-.652,.208-.314,.252-.705,.276-1.081,.158-2.466-.314-4.927-.871-7.334-1.398-6.05-6.048-16.606-7.471-19.021-.11-.186-.831-1.165-1.019-1.058-.197,.111,.197,2.064,.168,2.288-.084,.643,2.213,13.114,2.991,20.244Z"/><path class="cls-1" d="M177.948,83.417c-4.713,5.235-10.331,9.611-14.913,14.961-.651,.76-1.315,1.794-.861,2.686,.577,1.133,2.257,.851,3.433,.368,4.697-1.926,9.233-4.401,12.941-7.869,7.904-7.393,11.251-18.579,11.793-29.387,.068-1.352,.041-2.86-.888-3.843-.115-.122-.253-.237-.419-.259-.415-.054-.649,.454-.747,.861-.535,2.234-5.626,17.246-10.339,22.482Z"/><path class="cls-3" d="M168.446,114.637c-1.878-.146-3.887,.185-5.329,1.398s-2.095,3.463-1.104,5.065c.62,1.002,1.772,1.649,2.179,2.755,.563,1.532-.526,3.114-1.076,4.651-.418,1.168-.526,2.422-.604,3.661-.812,13.023,1.376,26.462-2.521,38.915-1.649,5.271-4.334,10.148-7.002,14.985,1.938,.892,4.135-.373,5.888-1.589,1.965-1.362,3.951-2.744,5.524-4.544,1.898-2.171,3.109-4.857,4.052-7.582,3.207-9.27,3.564-19.274,3.254-29.078-.103-3.257-.288-6.574-1.432-9.625-.852-2.273-2.242-4.446-2.239-6.873,.002-2.116,1.069-4.062,1.682-6.087s.638-4.545-1.274-6.05Z"/><path class="cls-3" d="M126.147,105.246c.249,.846,.381,1.812-.078,2.565-.765,1.257-2.569,1.17-4.04,1.116-5.069-.186-9.953,1.889-14.355,4.411-12.443,7.128-22.56,18.245-28.488,31.302-.378,.831-.766,1.707-1.489,2.265s-1.895,.652-2.474-.054c-.207-.252-.313-.57-.404-.884-1.285-4.427-.294-9.293,1.905-13.344s5.517-7.384,9.037-10.361c6.936-5.866,14.844-10.581,23.303-13.891,2.92-1.143,6.073-2.238,8.003-4.71,1.58-2.024,5.618-7.055,6.434-3.87,.481,1.876,2.039,3.393,2.646,5.456Z"/></svg>