<?xml version="1.0" encoding="UTF-8"?><svg id="Layer_2" xmlns="http://www.w3.org/2000/svg" width="75.699" height="70.427" viewBox="0 0 75.699 70.427"><defs><style>.cls-1{fill:none;stroke:#0e4215;stroke-miterlimit:10;stroke-width:1.5px;}</style></defs><g><g><path class="cls-1" d="M34.83,47.866c.15-.873-.743-26.132,1.349-30.185,1.419-2.748,4.526-6.18,16.548-7.715,1.085-.139,7.93-1.659,10.844-9.439"/><path class="cls-1" d="M.72,.866C3.234,9.508,11.183,10.195,12.241,10.333c11.721,1.534,14.993,4.976,16.376,7.724,2.04,4.053,.591,29.832,.591,29.832l6.458-.158"/></g><path class="cls-1" d="M16.694,10.902c.019-.528-.714-1.273-.502-1.947,.102-.326,.291-.618,.49-.895,.431-.599,.927-1.151,1.477-1.643,.63-.564,1.348-1.072,1.751-1.815,.482-.888,.433-1.959,.371-2.968"/><path class="cls-1" d="M16.434,8.044c-1.022,.147-2.106-.257-2.784-1.036s-.926-1.909-.639-2.901c.121-.418,.33-.81,.42-1.236s.033-.924-.296-1.209"/><path class="cls-1" d="M13.478,6.537c1.084-.469,2.439-.547,3.153-1.488,.429-.566,.511-1.323,.471-2.032s-.185-2.078-.146-2.788"/><path class="cls-1" d="M7.32,8.931c.151-.133,.262-.141,.368-.312,.353-.57,.684-1.237,.723-1.906,.075-1.289-3.179-3.575-2.821-4.815"/><path class="cls-1" d="M8.262,7.36c.696,.132,1.455-.137,1.913-.678,.437-.516,.586-1.215,.65-1.888,.052-.55,.058-1.104,.064-1.657,.004-.414-.103-1.705-.099-2.119"/><path class="cls-1" d="M24.986,14.036c-.742-1.046-.736-2.494-.238-3.676s1.422-2.135,2.418-2.942c.939-.761,1.991-1.456,2.578-2.512,.707-1.269,.61-2.828,.328-4.254"/><path class="cls-1" d="M25.506,9.359c-.736-.228-1.269-.874-1.625-1.558-1.031-1.983-.825-4.547,.509-6.34"/><path class="cls-1" d="M26.887,7.762c1.181-.134,2.381-.055,3.557-.231s2.381-.662,3.048-1.647c.282-.417,.452-.899,.595-1.382,.307-1.037,.507-2.106,.596-3.184"/><path class="cls-1" d="M28.591,6.268c-1.289-.372-2.139-2.17-1.998-3.505,.092-.878,.579-1.668,.749-2.534"/><path class="cls-1" d="M38.147,14.97c-.818-.787-1.023-1.556-.992-2.691s.446-2.234,1.035-3.205c.522-.86,1.183-1.637,1.629-2.539,.872-1.761,.825-3.947-.122-5.669"/><path class="cls-1" d="M38.436,8.412c-.667-.102-1.224-.605-1.535-1.203s-.409-1.285-.445-1.959c-.071-1.339,.084-2.689,.457-3.977"/><path class="cls-1" d="M37.267,12.055l3.281-1.851c.709-.4,1.431-.81,1.981-1.409,1.178-1.284,1.358-5.591,1.406-7.333"/><path class="cls-1" d="M42.979,8.162c.702-.015,1.442-.04,2.043-.404,.858-.521,1.199-1.58,1.413-2.561,.336-1.534,.526-3.1,.567-4.67"/><path class="cls-1" d="M49.248,10.662c.023-1.215,.939-2.234,1.943-2.918s2.152-1.163,3.06-1.97c1.271-1.129,1.963-2.88,1.806-4.573"/><path class="cls-1" d="M54.846,5.634c1.423,.253,2.966-.365,3.821-1.53,.791-1.078,1.197-2.693,1.342-4.022"/><path class="cls-1" d="M49.849,8.7c-1.067-.866-1.498-2.331-1.44-3.704s.54-2.688,1.015-3.977"/><path class="cls-1" d="M48.584,5.648c.539,.357,1.277,.307,1.847,.002s.993-.829,1.323-1.385c.644-1.087,.984-2.352,.972-3.615"/></g><g><g><path class="cls-1" d="M40.869,22.561c-.15,.873,.743,26.132-1.349,30.185-1.419,2.748-4.526,6.18-16.548,7.715-1.085,.139-7.93,1.659-10.844,9.439"/><path class="cls-1" d="M74.979,69.561c-2.514-8.641-10.463-9.329-11.521-9.467-11.721-1.534-14.993-4.976-16.376-7.724-2.04-4.053-.591-29.832-.591-29.832l-6.412,.157"/></g><path class="cls-1" d="M59.005,59.525c-.019,.528,.714,1.273,.502,1.947-.102,.326-.291,.618-.49,.895-.431,.599-.927,1.151-1.477,1.643-.63,.564-1.348,1.072-1.751,1.815-.482,.888-.433,1.959-.371,2.968"/><path class="cls-1" d="M59.265,62.383c1.022-.147,2.106,.257,2.784,1.036s.926,1.909,.639,2.901c-.121,.418-.33,.81-.42,1.236s-.033,.924,.296,1.209"/><path class="cls-1" d="M62.221,63.891c-1.084,.469-2.439,.547-3.153,1.488-.429,.566-.511,1.323-.471,2.032s.185,2.078,.146,2.788"/><path class="cls-1" d="M68.379,61.497c-.151,.133-.262,.141-.368,.312-.353,.57-.684,1.237-.723,1.906-.075,1.289,3.179,3.575,2.821,4.815"/><path class="cls-1" d="M67.437,63.067c-.696-.132-1.455,.137-1.913,.678-.437,.516-.586,1.215-.65,1.888-.052,.55-.058,1.104-.064,1.657-.004,.414,.103,1.705,.099,2.119"/><path class="cls-1" d="M50.713,56.391c.742,1.046,.736,2.494,.238,3.676s-1.422,2.135-2.418,2.942c-.939,.761-1.991,1.456-2.578,2.512-.707,1.269-.61,2.828-.328,4.254"/><path class="cls-1" d="M50.193,61.068c.736,.228,1.269,.874,1.625,1.558,1.031,1.983,.825,4.547-.509,6.34"/><path class="cls-1" d="M48.812,62.665c-1.181,.134-2.381,.055-3.557,.231s-2.381,.662-3.048,1.647c-.282,.417-.452,.899-.595,1.382-.307,1.037-.507,2.106-.596,3.184"/><path class="cls-1" d="M47.108,64.159c1.289,.372,2.139,2.17,1.998,3.505-.092,.878-.579,1.668-.749,2.534"/><path class="cls-1" d="M37.552,55.458c.818,.787,1.023,1.556,.992,2.691s-.446,2.234-1.035,3.205c-.522,.86-1.183,1.637-1.629,2.539-.872,1.761-.825,3.947,.122,5.669"/><path class="cls-1" d="M37.263,62.016c.667,.102,1.224,.605,1.535,1.203s.409,1.285,.445,1.959c.071,1.339-.084,2.689-.457,3.977"/><path class="cls-1" d="M38.432,58.372l-3.281,1.851c-.709,.4-1.431,.81-1.981,1.409-1.178,1.284-1.358,5.591-1.406,7.333"/><path class="cls-1" d="M32.72,62.265c-.702,.015-1.442,.04-2.043,.404-.858,.521-1.199,1.58-1.413,2.561-.336,1.534-.526,3.1-.567,4.67"/><path class="cls-1" d="M26.451,59.765c-.023,1.215-.939,2.234-1.943,2.918s-2.152,1.163-3.06,1.97c-1.271,1.129-1.963,2.88-1.806,4.573"/><path class="cls-1" d="M20.853,64.793c-1.423-.253-2.966,.365-3.821,1.53-.791,1.078-1.197,2.693-1.342,4.022"/><path class="cls-1" d="M25.85,61.728c1.067,.866,1.498,2.331,1.44,3.704s-.54,2.688-1.015,3.977"/><path class="cls-1" d="M27.115,64.779c-.539-.357-1.277-.307-1.847-.002s-.993,.829-1.323,1.385c-.644,1.087-.984,2.352-.972,3.615"/></g></svg>