<?xml version="1.0" encoding="UTF-8"?><svg id="Layer_1" xmlns="http://www.w3.org/2000/svg" width="168.8" height="157.3" viewBox="0 0 168.8 157.3"><defs><style>.cls-1{fill:none;stroke:#254121;stroke-miterlimit:10;stroke-width:3px;}</style></defs><g id="Layer_2"><g><g><g><path class="cls-1" d="M79.2,114.455s-1.9-65.986,1.4-74.955c3.2-6.1,10.1-13.8,37-17.2,2.4-.3,17.7-3.7,24.2-21.1"/><path class="cls-1" d="M3.954,1.9c5.6,19.3,20.846,20.8,23.146,21.1,26.2,3.4,33.5,11.1,36.6,17.3,4.6,9.1,2.9,72.931,2.9,72.931l12.6-.3"/></g><path class="cls-1" d="M37.1,24.3c0-1.2-1.6-2.8-1.1-4.3,.2-.7,.6-1.4,1.1-2,1-1.3,2.1-2.6,3.3-3.7,1.4-1.3,3-2.4,3.9-4.1,1.1-2,1-4.4,.8-6.6"/><path class="cls-1" d="M36.5,18c-2.3,.3-4.7-.6-6.2-2.3s-2.1-4.3-1.4-6.5c.3-.9,.7-1.8,.9-2.8s.1-2.1-.7-2.7"/><path class="cls-1" d="M29.9,14.6c2.4-1,5.4-1.2,7-3.3,1-1.3,1.1-3,1.1-4.5-.1-1.6-.4-4.6-.3-6.2"/><path class="cls-1" d="M16.2,19.9c.3-.3,.6-.3,.8-.7,.8-1.3,1.5-2.8,1.6-4.3,.2-2.9-7.1-8-6.3-10.8"/><path class="cls-1" d="M18.3,16.4c1.6,.3,3.2-.3,4.3-1.5,1-1.2,1.3-2.7,1.5-4.2,.1-1.2,.1-2.5,.1-3.7,0-.9-.2-3.8-.2-4.7"/><path class="cls-1" d="M55.6,31.3c-1.6-2.3-1.6-5.5-.5-8.2s3.2-4.8,5.4-6.6c2.1-1.7,4.4-3.3,5.8-5.6,1.6-2.8,1.4-6.3,.7-9.5"/><path class="cls-1" d="M56.8,20.9c-1.6-.5-2.8-2-3.6-3.5-2.3-4.4-1.9-10.1,1.1-14.2"/><path class="cls-1" d="M59.9,17.3c2.6-.3,5.3-.1,7.9-.5s5.3-1.5,6.8-3.7c.6-.9,1-2,1.3-3.1,.7-2.3,1.1-4.7,1.3-7.1"/><path class="cls-1" d="M63.7,14c-2.9-.8-4.8-4.8-4.5-7.8,.2-2,1.3-3.7,1.7-5.7"/><path class="cls-1" d="M85,33.4c-1.8-1.8-2.3-3.5-2.2-6,.1-2.5,1-5,2.3-7.2,1.2-1.9,2.6-3.7,3.6-5.7,1.9-3.9,1.8-8.8-.3-12.7"/><path class="cls-1" d="M85.7,18.8c-1.5-.2-2.7-1.4-3.4-2.7-.7-1.3-.9-2.9-1-4.4-.2-3,.2-6,1-8.9"/><path class="cls-1" d="M83.1,26.9c2.4-1.4,4.9-2.8,7.3-4.1,1.6-.9,3.2-1.8,4.4-3.1,2.6-2.9,3-12.5,3.1-16.4"/><path class="cls-1" d="M95.8,18.2c1.6,0,3.2-.1,4.6-.9,1.9-1.2,2.7-3.5,3.2-5.7,.8-3.4,1.2-6.9,1.3-10.4"/><path class="cls-1" d="M109.8,23.8c.1-2.7,2.1-5,4.3-6.5s4.8-2.6,6.8-4.4c2.8-2.5,4.4-6.4,4-10.2"/><path class="cls-1" d="M122.3,12.6c3.2,.6,6.6-.8,8.5-3.4,1.8-2.4,2.7-6,3-9"/><path class="cls-1" d="M111.2,19.4c-2.4-1.9-3.3-5.2-3.2-8.3,.1-3.1,1.2-6,2.3-8.9"/><path class="cls-1" d="M108.4,12.6c1.2,.8,2.9,.7,4.1,0,1.3-.7,2.2-1.9,3-3.1,1.4-2.4,2.2-5.3,2.2-8.1"/></g><g><g><path class="cls-1" d="M89.5,44.423s1.9,63.7-1.4,73.377c-3.2,6.1-10.1,13.8-37,17.2-2.4,.3-17.7,3.7-24.2,21.1"/><path class="cls-1" d="M167.3,155.4c-5.6-19.3-23.4-20.8-25.7-21.1-26.2-3.4-33.5-11.1-36.6-17.3-3.823-10.1-2.9-71.377-2.9-71.377l-12.6,.3"/></g><path class="cls-1" d="M131.6,132.9c0,1.2,1.6,2.8,1.1,4.3-.2,.7-.6,1.4-1.1,2-1,1.3-2.1,2.6-3.3,3.7-1.4,1.3-3,2.4-3.9,4.1-1.1,2-1,4.4-.8,6.6"/><path class="cls-1" d="M132.2,139.3c2.3-.3,4.7,.6,6.2,2.3s2.1,4.3,1.4,6.5c-.3,.9-.7,1.8-.9,2.8s-.1,2.1,.7,2.7"/><path class="cls-1" d="M138.8,142.7c-2.4,1-5.4,1.2-7,3.3-1,1.3-1.1,3-1.1,4.5,.1,1.6,.4,4.6,.3,6.2"/><path class="cls-1" d="M152.6,137.4c-.3,.3-.6,.3-.8,.7-.8,1.3-1.5,2.8-1.6,4.3-.2,2.9,7.1,8,6.3,10.8"/><path class="cls-1" d="M150.5,140.9c-1.6-.3-3.2,.3-4.3,1.5-1,1.2-1.3,2.7-1.5,4.2-.1,1.2-.1,2.5-.1,3.7,0,.9,.2,3.8,.2,4.7"/><path class="cls-1" d="M113.1,125.9c1.7,2.3,1.6,5.6,.5,8.2s-3.2,4.8-5.4,6.6c-2.1,1.7-4.4,3.3-5.8,5.6-1.6,2.8-1.4,6.3-.7,9.5"/><path class="cls-1" d="M112,136.4c1.6,.5,2.8,2,3.6,3.5,2.3,4.4,1.8,10.2-1.1,14.2"/><path class="cls-1" d="M108.9,140c-2.6,.3-5.3,.1-7.9,.5s-5.3,1.5-6.8,3.7c-.6,.9-1,2-1.3,3.1-.7,2.3-1.1,4.7-1.3,7.1"/><path class="cls-1" d="M105.1,143.3c2.9,.8,4.8,4.8,4.5,7.8-.2,2-1.3,3.7-1.7,5.7"/><path class="cls-1" d="M83.7,123.9c1.8,1.8,2.3,3.5,2.2,6-.1,2.5-1,5-2.3,7.2-1.2,1.9-2.6,3.7-3.6,5.7-1.9,3.9-1.8,8.8,.3,12.7"/><path class="cls-1" d="M83.1,138.5c1.5,.2,2.7,1.4,3.4,2.7,.7,1.3,.9,2.9,1,4.4,.2,3-.2,6-1,8.9"/><path class="cls-1" d="M85.7,130.4c-2.4,1.4-4.9,2.8-7.3,4.1-1.6,.9-3.2,1.8-4.4,3.1-2.6,2.9-3,12.5-3.1,16.4"/><path class="cls-1" d="M72.9,139.1c-1.6,0-3.2,.1-4.6,.9-1.9,1.2-2.7,3.5-3.2,5.7-.8,3.4-1.2,6.9-1.3,10.4"/><path class="cls-1" d="M58.9,133.5c-.1,2.7-2.1,5-4.3,6.5s-4.8,2.6-6.8,4.4c-2.8,2.5-4.4,6.4-4,10.2"/><path class="cls-1" d="M46.4,144.7c-3.2-.6-6.6,.8-8.5,3.4-1.8,2.4-2.7,6-3,9"/><path class="cls-1" d="M57.6,137.9c2.4,1.9,3.3,5.2,3.2,8.3s-1.2,6-2.3,8.9"/><path class="cls-1" d="M60.4,144.7c-1.2-.8-2.9-.7-4.1,0s-2.2,1.9-3,3.1c-1.4,2.4-2.2,5.3-2.2,8.1"/></g></g></g></svg>