<?xml version="1.0" encoding="UTF-8"?><svg id="Layer_1" xmlns="http://www.w3.org/2000/svg" width="217.78" height="231.766" viewBox="0 0 217.78 231.766"><defs><style>.cls-1{fill:#5e7258;}.cls-2{fill:#4d604b;}</style></defs><path class="cls-1" d="M72.503,83.163c-4.174,1.367-8.49,3.31-10.718,6.957-2.228,3.648-1.143,9.343,3.046,10.668-2.029,1.458-4.105,2.963-5.457,5.02-1.351,2.057-1.84,4.818-.546,6.908-1.404,2.021-2.399,4.301-2.915,6.677-.56,2.58-.383,5.646,1.732,7.332,1.879,1.498,4.74,1.362,6.913,.29,2.173-1.072,3.812-2.905,5.376-4.705-1.728,2.459-7.147,5.981-4.713,14.565,.789,2.781,4.25,6.271,6.392,4.311-.865,1.587-1.758,3.344-1.36,5.094s2.809,3.081,4.201,1.885c-.863,.986-.547,2.597,.438,3.472,.985,.875,2.436,1.114,3.771,.974,4.08-.425,10.602-6.329,12.552-9.788s3.357-7.318,6.274-10.084c3.716-3.523,9.707-4.627,14.522-2.675,2.892,1.173,5.253,3.282,7.396,5.482,8.058,8.269,13.963,18.448,17.04,29.37,2.856-2.295,7.559-3.692,10.978-5.115-6.745-9.218-12.003-18.955-17.255-28.183-2.744-4.821-1.456-10.946,1.471-13.873-.101,.671,1.444,1.533,2.097,1.75,1.87,.622,7.61-.697,9.901-12.005,2.777,1.455,6.323,1.464,9.109,.025,2.786-1.439,6.976-5.033,7.233-8.055-.697-1.655-3.196-1.169-4.23,.069,5.148-3.427,6.606-8.14,4.626-13.838-1.49-4.289-6.085-7.129-10.772-7.642-4.688-.513-9.402,.97-13.536,3.148,1.792-3.639,2.015-8.301-.631-11.425-2.647-3.124-8.582-3.457-10.752-.012,.818-2.963-1.18-6.19-4.042-7.559-2.862-1.369-6.32-1.151-9.34-.142,.702-2.756-.944-5.691-3.347-7.348-2.403-1.657-5.418-2.261-8.361-2.578-5.765-.621-11.925-.206-16.819,2.78-4.894,2.985-8.036,9.075-6.048,14.297-3.5,.896-6.328,3.853-6.954,7.272-.626,3.419,.982,7.121,2.734,6.681Z"/><path class="cls-1" d="M136.291,166.712c3.737-2.283,8.418-3.101,12.755-2.23-4.163,13.137,1.374,28.549,13.094,36.449-3.947-2.122-8.071-3.94-12.32-5.431-1.989-.698-4.435-1.256-6.049,.059-1.774,1.445-1.479,4.364-3.235,5.83,.411-2.594-3.057-4.884-5.441-3.593,.071-1.06,.142-2.12,.213-3.18-5.621,.922-11.061,2.844-15.961,5.641,2.818-2.644,6.422-4.431,9.184-7.128,6.736-6.577,7.062-16.836,7.759-26.417Z"/><path class="cls-2" d="M111.439,114.674c-1.45-2.197,.108-5.63,2.695-6.112,1.135-.211,2.84-.507,2.578-1.632-.002,1.196,1.097,2.168,2.265,2.424s2.38-.035,3.533-.354c2.072-.574,4.167-1.267,5.858-2.596s2.924-3.418,2.704-5.557c2.007,2.361,6.558,1.418,7.461-1.546,2.09,.437,4.333,.098,6.2-.937-.764,3.965-4.772,6.296-8.337,8.193s-16.378,11.948-8.115,27.073c-.531-.435-.738-2.133-6.164-7.187-5.814-5.415-8.864-2.33-9.657-2.314-1.719,.033-3.276,1.861-4.879,1.241,.206-1.346-.791-2.765-2.128-3.026,2.36-.943,5.154-2.537,4.961-5.071-.054-.712-.36-1.394-.356-2.108s.514-1.525,1.381-.488Z"/><path class="cls-2" d="M78.504,95.293c-.167,2.32-1.313,4.44-1.978,6.669s-.738,4.929,.9,6.581c1.686,1.701,4.419,1.595,6.804,1.371-2.002,2.434-3.426,5.341-4.123,8.414-.403,1.777-.085,4.277,1.721,4.518,1.673,.223,3.161-1.884,4.748-1.308,.56,.203,.954,.705,1.461,1.018,2.147,1.326,4.6-1.134,5.926-3.281,2.223-.637,3.393,2.898,2.273,4.921s-3.297,3.441-3.912,5.67c-.455,1.651-.017,3.633-1.13,4.934-.764,.893-2.019,1.147-3.177,1.349-4.342,.755-9.529,1.238-12.457-2.056-.553-.622-1.127-1.423-1.959-1.402-.074,.854-.147,1.708-.221,2.562-2.367-2.892-4.62-6.119-5.056-9.83s1.561-7.952,5.191-8.841c-3.497-2.988-6.494-7.053-6.592-11.651s3.769-9.385,11.581-9.638Z"/></svg>