<?xml version="1.0" encoding="UTF-8"?><svg id="Layer_1" xmlns="http://www.w3.org/2000/svg" width="296.81" height="213.785" viewBox="0 0 296.81 213.785"><defs><style>.cls-1{fill:#e7f7cd;}.cls-2{fill:#b9d3b2;}.cls-3{fill:#5e7258;}.cls-4{fill:#839b7e;}.cls-5{fill:#4d604b;}</style></defs><path class="cls-1" d="M89.344,137.739c1.439-6.465,2.207-13.11,2.283-19.764-2.483,6.122-4.966,12.244-7.449,18.366,1.568-.777,3.368-.976,5.167,1.398Z"/><path class="cls-1" d="M229.869,89.493c-.256,1.756-.513,3.511-.769,5.267"/><path class="cls-4" d="M39.242,153.254c9.911-5.495,5.821-1.989,15.732-7.484,8.591-4.763,17.736-10.117,22.058-19.551,3.778-8.247,3.1-17.998,2.333-27.189-.471-5.64-.942-11.279-1.412-16.919-.386-4.629-.687-9.664,1.642-13.548,1.458-2.433,3.768-4.073,6.058-5.545,21.188-13.626,46.751-18.869,70.996-14.56,9.033,1.605,18.601,5.047,23.737,13.354,4.865,7.868,4.582,18.084,5.043,27.577,.688,14.166,4.037,29.327,14.004,38.369,3.935,3.569,8.641,5.932,13.287,8.254,8.174,4.085,8.205,4.53,16.379,8.615-17.726-4.152-27.143-5.527-44.464-11.384-2.203-.745-5.027-1.312-6.45,.677-1.808,2.528,.618,6.009,2.861,8.075,8.527,7.853,3.054,6.767,11.581,14.62-19.75-11.219-25.963-13.668-47.967-17.218-3.134-.506-6.45-.825-9.37,.522-3.484,1.608-5.821,5.39-6.877,9.371-1.056,3.981-.137,11.826-.963,12.345-1.412,.887-8.73-15.107-16.092-18.538-1.631-.76-3.441-1.365-5.159-.884-1.541,.432-2.77,1.669-3.929,2.863-7.03,7.241-14.06,14.482-21.09,21.722,3.148-8.24,6.004-16.615,8.559-25.099,.333-1.105,.634-2.416,.004-3.351-.487-.723-1.371-.953-2.185-1.052-6.401-.785-11.841,4.235-17.921,6.817-13.614,5.781-13.804,6.158-30.395,9.141Z"/><path class="cls-3" d="M188.296,128.206c-3.483-3.077-5.487-7.716-6.996-12.334-1.509-4.617-2.662-9.431-4.944-13.65-.418,8.346-.338,16.723,.24,25.058,.055,.793,.164,1.687,.751,2.154,.488,.388,1.147,.346,1.748,.287,2.628-.257,5.256-.514,9.201-1.516Z"/><path class="cls-2" d="M145.33,49.306c-17.289-.429-34.655,4.115-50.088,13.108-2.532,1.475-5.277,3.469-5.797,6.683-.138,.856-.067,1.838,.475,2.444,.331,.37,.787,.544,1.226,.703,23.84,8.603,49.537,5.083,74.322,1.48,3.267-.475,7.018-1.312,8.592-4.645,1.393-2.949,.363-6.8-1.667-9.21-2.03-2.409-4.842-3.689-7.585-4.819-7.8-3.214-16.003-5.808-19.48-5.745Z"/><path class="cls-3" d="M149.009,54.442c-15.269-.418-31.371-.621-44.729,7.566-1.17,.717-2.442,1.724-2.519,3.201-.105,2.021,2,3.189,3.756,3.764,16.835,5.513,34.888,6.414,52.104,2.6,2.472-.547,5.178-1.38,6.521-3.738,1.711-3.004,.26-7.207-2.296-9.355-2.556-2.148-5.872-2.764-9.043-3.314-4.961-.861-10.152-1.703-3.794-.723Z"/><path class="cls-3" d="M169.67,140.38c-5.947-6.116-10.802-13.506-14.21-21.629-2.206-5.258-3.876-10.935-7.332-15.309-.131,1.934,.134,3.871,.397,5.789,1.072,7.796,2.145,15.591,3.217,23.387,.132,.961,.277,1.958,.772,2.764,.55,.897,1.457,1.436,2.329,1.94,4.465,2.586,9.421,5.252,14.826,3.059Z"/><path class="cls-3" d="M82.8,133.228c4.463-7.259,4.615-16.748,8.198-24.573,.809,.388,.902,1.585,.872,2.552-.197,6.412-.395,12.824-.592,19.235-.01,.327-.027,.677-.202,.942-.143,.217-.372,.343-.591,.462-1.978,1.068-4.345,2.139-7.684,1.381Z"/><path class="cls-3" d="M122.054,144.626c.163-9.857-.857-19.737-3.025-29.305-.958,1.016-1.153,2.596-1.293,4.049-.544,5.62-1.088,11.24-1.632,16.86-.101,1.042-.199,2.118,.085,3.118,.464,1.636,1.832,2.727,3.118,3.699,.748,.566,1.542,1.15,2.748,1.578Z"/><path class="cls-4" d="M154.018,57.663c-12.024-.456-24.066,.442-36.018,2.687-1.577,.296-3.622,1.518-3.463,4.142,.096,1.586,1.025,2.639,1.907,3.267,2.657,1.891,5.635,1.988,8.525,1.951,6.624-.085,13.241-.723,19.855-1.361,3.414-.329,6.917-.694,10.033-3.034,.703-.528,1.475-1.402,1.469-2.685-.004-.928-.425-1.687-.819-2.345-.901-1.506-1.803-3.011-1.489-2.623Z"/><path class="cls-5" d="M136.85,62.843c-3.566-.585-7.166-.439-10.714,.435-.554,1.888,.93,3.553,2.073,3.838,4.974,1.24,10.145-.42,14.612-4.69-4.913-4.058-10.686-4.347-5.971,.417Z"/></svg>