<?xml version="1.0" encoding="UTF-8"?><svg id="Layer_1" xmlns="http://www.w3.org/2000/svg" width="303.694" height="213.785" viewBox="0 0 303.694 213.785"><defs><style>.cls-1{fill:#5e7258;}.cls-2{fill:#839b7e;}.cls-3{fill:#4d604b;}</style></defs><g><path class="cls-3" d="M120.356,1.644c-1.789,15.94-2.267,31.995-2.744,48.028-.32,10.772-.64,21.561-.023,32.321,.43,7.495,1.315,14.98,1.126,22.485-.115,4.563-.627,9.105-1.139,13.641-.377,3.346-3.944,11.716-5.452,14.726-3.513,7.013-38.89-1.606-38.89-1.606l.3,2.678s16.538,4.938,19.189,5.789c14.835,4.762,14.477,6.866,18.914,10.438,5.128,4.129,1.311,13.667,2.966,20.039,6.427-4.803,21.441-5.814,28.827-2.68-1.809-10.357-1.142-19.877-.706-30.382,.642-15.466-1.561-31.718-3.203-47.109-1.072-10.052-1.048-20.22,.07-30.267,.516-4.632,1.311-9.371,3.723-13.359,3.172-5.242,8.749-8.542,14.378-10.964s11.579-4.209,16.768-7.467c-8.338,2.045-16.694,4.018-25.066,5.921-1.1,.25-10.919,3.917-7.464-22.435,.294-2.245,.921-7.703-1.183-8.538-.618-.245-13.953,1.12-20.391-1.259Z"/><path class="cls-2" d="M82.436,38.274c-1.341-2.136-1.484-2.464-2.225-5.372-.734-2.881,.365-6.032,1.633-8.716,2.153-4.558,7.435-7.855,12.366-7.616,4.93,.239,9.544,3.401,11.926,7.825,.326,.606,.674,1.289,1.313,1.513,.412,.144,.864,.063,1.292-.02,1.831-.354,3.661-.708,5.492-1.062,.669,2.608-5.902,4.224-5.902,4.224,0,0,1.755,9.534,.065,12.806-1.267,2.454-3.186,4.48-5.075,6.585,2.537,2.873,4.305,5.375,5.355,9.224-2.357,1.483-4.977,1.883-7.552,2.364,11.756-1.632,21.396-10.992,26.868-21.788,1.024-2.021,1.969-4.154,3.589-5.714,1.619-1.56,4.146-2.403,6.099-1.327,2.582,4.737-1.838,14.143-5.979,17.545-1.081,.888,.823-1.241-.029-.122-.648,.85-1.016,1.882-1.374,2.895-1.504,4.258-3.357,6.69-6.645,9.719-2.585,2.382-7.336,6.235-11.354,7.71,1.203,3.569,.96,6.251,1.078,9.225,4.777-2.414,2.848-1.553,8.024-2.832,1.536-.38,3.14-.708,4.684-.373,4.339,.94,6.029,6.284,6.635,10.787,.893,6.629,1.163,13.348,.806,20.034,.205-2.164,3.413-2.904,4.92-1.379s1.347,4.185,.216,6.027c-1.13,1.842-2.992,3.06-4.791,4.216-1.807,1.16-3.669,2.343-5.762,2.747s-4.503-.146-5.758-1.905c-1.18-1.654-1.082-3.886-1.074-5.937,.022-5.836-.11-12.171-2.307-17.55-5.011,5.717-10.934,8.581-14.099,9.908,0,7.298,.055,8.004-.161,11.276-.388,5.874-1,10.299,.151,16.062,1.238-2.307,4.795-2.787,6.563-.885s1.128,5.519-1.181,6.675c-9.527,4.768-18.088-.104-19.235-.528,.404-8.82,.243-17.666-.483-26.462-.142-1.716-.318-3.477-1.081-5.01-.913-1.833-2.566-3.146-3.784-4.782-3.046-4.089-3.089-9.674-2.999-14.825,.184-10.61,.368-21.219,.552-31.829,.043-2.464,.235-5.261,2.101-6.822-.814-1.086-1.603-2.626-2.417-3.712-5.841,3.124-4.217,1.593-4.842,.759,2.217-1.691,3.498-2.521,4.383-3.559Z"/></g><path class="cls-1" d="M91.974,19.465c-3.401,.688-6.382,3.181-7.66,6.407s-.814,7.084,1.192,9.915c1.312,1.851,3.259,3.343,3.897,5.52,.896,3.058-1.092,6.113-2.088,9.139-1.106,3.361-.989,6.985-.859,10.522,.198,5.407,.395,10.814,.593,16.221,.189,5.159,.41,10.466,2.522,15.177,.986,2.2,2.365,4.217,3.231,6.468,1.45,3.771,1.37,7.928,1.39,11.968,.036,7.373,.473,14.744,1.308,22.069,1.73-.11,2.101-2.478,1.959-4.206-.786-9.582-1.571-19.165-2.357-28.747,2.838,1.789,6.975,1.084,9.061-1.544-2.751,1.091-6.004-.182-8.005-2.362s-2.987-5.09-3.741-7.951c-3.171-12.035-3.113-24.904,.165-36.91,.112-.411,.248-.851,.59-1.105,.557-.414,1.332-.138,2.008,.017,2.202,.504,4.674-.667,5.679-2.69-1.219,.802-2.937,.364-4.02-.613s-1.682-2.368-2.248-3.714c-.823-1.956-1.646-3.911-2.469-5.867-.151-.359-.302-.773-.136-1.125,.132-.28,.428-.437,.705-.575,3.059-1.527,6.118-3.053,9.177-4.58-2.89,.809-5.78,1.618-8.671,2.426-.567,.159-1.213,.308-1.713-.002-.425-.263-.609-.779-.743-1.261-1.094-3.953-.701-8.3,1.235-12.597Z"/></svg>