<?xml version="1.0" encoding="UTF-8"?><svg id="Layer_1" xmlns="http://www.w3.org/2000/svg" width="282.407" height="239.758" viewBox="0 0 282.407 239.758"><defs><style>.cls-1{fill:#5e7258;}.cls-2{fill:#839b7e;}.cls-3{fill:#4d604b;}</style></defs><path class="cls-1" d="M108.015,129.686c-1.738,2.249-3.903,5.713-6.603,5.859-.11,2.071-2.866,3.256-4.25,1.828,.13,.786,.259,1.572,.389,2.359-.664,.514-1.608,.56-2.311,.112,.259,1.137,.013,3.2-.969,3.682-.982,.482-2.454,.357-3.067-.607,.152,2.385-1.722,4.441-4.595,2.924,.068,.911,1.203,2.007,.696,2.736-.508,.729-2.303,.527-2.558-.345,.721,.831,.676,2.302-.094,3.079s-2.122,.718-2.832-.123c.872,.692,.269,2.367-.758,2.725s-2.126-.133-3.11-.615c.444,.926,.142,2.193-.661,2.767-.803,.574-1.587,1.001-2.194,.191,.662,.69,.75,2.066,.191,2.856s-2.381-.325-3.165-.843c1,.488,.998,1.734,.418,2.746s-2.45,.376-3.294-.384c.688,.888,.728,3.363-.275,3.763s-1.74-.473-2.246-1.696c.641,.862,.635,2.216-.015,3.07s-1.871,1.117-2.771,.596c.966,2.284-1.628,5.179-3.754,4.191,.779,.58,1.611,.776,1.231,1.624s-1.133,1.575-1.995,1.675-1.427,.065-2.697,.269c.477,.935,.969,2.023,.633,3.028-.336,1.005-1.969,1.283-2.192,.242,1.153,2.183,.16,3.345-1.246,3.604,1.16-.328,1.451,1.699,1.117,2.949-.554,2.073-1.187,2.807-2.517,3.864-.208,.27,1.513,.991,2.007,1.56,.493,.57,.286,1.496-.019,2.205s-.544,1.086-.875,2.124c.785-.891,1.497-1.029,2.225-1.071,.353,.934-.212,1.735-.212,3.025,.087-.753,1.306-1.611,1.858-.849,.552,.762,.261,1.867-.054,2.774,.621-.847,1.847-1.078,2.695-.507s.322,.774,.637,1.914c.469-1.493,.168-1.694,.985-2.56,.817-.866,2.581,.69,2.952,1.683-.224-1.23-.201-3.552,.866-4.029,1.067-.477,2.085,.79,2.549,1.845,.094-1.181,.005-2.53,1.062-2.908s2.336,.289,2.725,1.423c-.505-1.177,.04-2.75,1.134-3.273s2.529,.105,2.985,1.306c-.438-.974-.589-2.222,.009-3.09s2.536,.197,2.864,1.221c-.087-1.201-.553-3.631,.215-4.499,.768-.868,2.987,1.335,2.812,2.524,.265-.762,.104-3.235,.369-3.997,.818-.08,1.662,.291,2.198,.967,.183-1.188,.366-2.377,.548-3.565,.883,.102,1.705,.696,2.133,1.542,.196-1.085,.392-2.169,.588-3.254,.967,.08,1.865,.805,2.214,1.789,.202-1.277,.403-2.553,.605-3.83,.457,.493,.914,.985,1.371,1.478,.198-1.134,.396-2.268,.594-3.402,.839,.125,1.653,.442,2.374,.924,.267-1.343,.824-2.616,1.615-3.688,.625,.224,1.041,.991,.919,1.694,.15-1.015,.299-2.031,.449-3.046,.68,.103,1.345,.33,1.957,.668-.461-1.026-.005-2.417,.949-2.895s2.224,.05,2.641,1.097c-.522-2.034,2.126-3.98,3.668-2.696-.403-.89-.732-1.948-.35-2.848s2.648-.329,3.006,.582c.272-1.172-.097-2.14,.175-3.312,.67-.075,1.58,.695,1.984,1.281,.063-.78,.418-2.705,.481-3.484,.662,.117,1.432,1.345,1.966,1.786,.265-.921-.111-2.485,.153-3.406,.636,.492,1.913,1.128,2.55,1.62-.059-1.051,.131-2.477,.548-3.428,.774,.149,1.963,.939,2.738,1.088,.098-1.092-.425-2.324,0-3.319,.85,.307,1.863,.13,2.713,.438-.079-1.07-.61-2.584-.32-3.61,.848,.193,1.696,.387,2.543,.58-4.271-8.224-10.296-17.698-17.302-22.696Z"/><path class="cls-2" d="M134.892,101.966c9.483-6.714,18.972-13.433,28.818-19.497,7.884-4.856,16.356-9.393,25.417-9.541,2.281-.037,4.664,.243,6.588,1.575,2.897,2.006,4.13,5.964,4.378,9.687,1.35,20.272-18.035,32.282-28.508,40.603-11.64,9.247-13.728,10.763-19.532,16.38"/><path class="cls-3" d="M172.878,88.188c3.874-4.219,8.975-7.087,14.381-8.088,1.471-.272,4.546,.412,5.562,1.601,.585,.685,2.18,6.794-1.874,13.365-3.175,5.146-7.178,7.089-7.178,7.089l-5.65-8.022c-1.375-2.64-4.62-4.754-5.24-5.944Z"/><path class="cls-2" d="M109.954,131.972c-15.355,12.721-29.747,25.053-45.993,39.992-3.541,3.256-6.519,7.392-7.882,12.184-.948,3.332-.446,7.767,2.507,9.131,1.175,.543,2.507,.474,3.773,.294,6.863-.976,13.06-4.87,18.823-9.038,7.313-5.289,35.885-28.393,43.029-33.904-3.1-2.873-5.234-6.749-7.616-10.341-2.044-3.084-4.303-5.999-6.64-8.316Z"/><path class="cls-1" d="M106.725,130.437c-1.993-2.166-4.144-3.472-5.568-6.115,1.486-2.742,3.874-4.893,6.629-5.971-1.944-2.831-3.888-5.663-5.832-8.494-1.782-2.596-3.597-6.2-1.834-8.812,2.02-2.992,5.477-5.086,16.659,7.067,.954,1.036,1.688,2.688,3.03,2.548,.626-.066,1.165-.485,1.672-.889,6.162-4.915,12.956-9.947,20.599-9.88,9.83,.086,18.585,10.136,18.257,20.815-.172,5.603-3.81,13.077-6.549,17.827-2.267,3.931-7.775,9.526-11.22,12.264-9.012,7.161-15.095,9.837-15.095,9.837,0,0-7.775-16.097-20.749-30.198Z"/><path class="cls-3" d="M134.926,116.495c1.508,2.626,3.108,5.19,4.794,7.685,.51,.755,1.061,1.533,1.846,1.922,2.2,1.089,4.542-1.556,5.023-4.132,.865-4.634-2.063-9.906-6.359-10.65-1.487-.257-3.112,.035-4.259,1.095-1.147,1.06-1.676,2.981-1.044,4.08Z"/><path class="cls-3" d="M120.739,140.575c1.83,2.61,3.66,5.219,5.491,7.829,.594,.848,1.289,1.762,2.261,1.909,.673,.102,1.337-.193,1.963-.482,3.366-1.556,6.798-3.156,9.535-5.794,3.888-3.746,6.237-9.446,10.889-11.96-2.13,10.238-9.469,19.002-18.647,22.267-1.752,.623-3.772,1.028-5.359,.01-1.163-.746-1.851-2.108-2.484-3.405-1.496-3.068-2.992-6.136-3.648-10.374Z"/><path class="cls-3" d="M104.789,102.471c4.624,6.757,9.481,13.325,14.558,19.685,1.051-1.207,1.239-3.076,.841-4.68-.398-1.604-1.296-3-2.213-4.329-1.715-2.484-3.558-4.864-5.517-7.125-2.163-2.496-4.736-4.983-7.881-5.246-.094,.484-.253,1.014,.214,1.695Z"/></svg>